<svg xmlns="http://www.w3.org/2000/svg" width="41.667" height="41.667" viewBox="0 0 41.667 41.667"><defs><style>.a{fill:#fff;}</style></defs><path class="a" d="M16.007,40.379a9.686,9.686,0,0,0,9.653,0A6.908,6.908,0,0,1,28.9,39.226h12.77V4.883H36.784V0H35.564C29.948,0,24.57,2.981,20.632,6.984a15.7,15.7,0,0,0-7.862-2.1H0V39.226H12.77A6.908,6.908,0,0,1,16.007,40.379ZM36.784,29.46V7.324h2.441V31.9H28.9a15.885,15.885,0,0,0-1.832.108,16.9,16.9,0,0,1,8.5-2.55ZM22.054,9.024C25.619,5.259,30.107,2.887,34.343,2.5V27.064a21.545,21.545,0,0,0-12.289,5.593Zm-9.284-1.7a13.267,13.267,0,0,1,6.843,1.895V33.466A15.7,15.7,0,0,0,12.77,31.9H2.441V7.324ZM2.441,34.343H12.77a13.275,13.275,0,0,1,7.386,2.236l.677.451.677-.451A13.274,13.274,0,0,1,28.9,34.343H39.226v2.441H28.9a9.017,9.017,0,0,0-4.463,1.483,7.244,7.244,0,0,1-7.2,0,9.017,9.017,0,0,0-4.463-1.483H2.441Zm0,0"/><path class="a" d="M60,135H72.289v2.441H60Zm0,0" transform="translate(-55.117 -124.014)"/><path class="a" d="M60,196H72.289v2.441H60Zm0,0" transform="translate(-55.117 -180.049)"/><path class="a" d="M60,256H72.289v2.441H60Zm0,0" transform="translate(-55.117 -235.166)"/><path class="a" d="M60,317H72.289v2.441H60Zm0,0" transform="translate(-55.117 -291.202)"/></svg>