<svg xmlns="http://www.w3.org/2000/svg" width="42.533" height="42.534" viewBox="0 0 42.533 42.534"><defs><style>.a{fill:#fff;}</style></defs><g transform="translate(-0.005)"><path class="a" d="M15.054.065A13.708,13.708,0,0,0,3.55,22.907,5.1,5.1,0,0,1,4.9,26.079c-.112.8-.379,1.336-1.2,1.336H.005v6.632a8.488,8.488,0,0,0,16.54,2.684,14.547,14.547,0,0,1,2.3-4.385l3.971-4.964a21.109,21.109,0,0,0,4.609-13.139C27.419,7.036,22.123.739,15.054.065Zm5.81,25.76-3.971,4.964a17.031,17.031,0,0,0-2.713,5.154A6,6,0,0,1,2.5,34.047V29.907H3.7A3.7,3.7,0,0,0,7.4,26.047l0-.077a7.591,7.591,0,0,0-2-4.737,11.216,11.216,0,0,1,9.42-18.688c5.669.541,10.109,5.679,10.109,11.7A18.608,18.608,0,0,1,20.864,25.825Z" transform="translate(0 0)"/><path class="a" d="M69.592,60.068a8.727,8.727,0,0,0-9,11.819l2.325-.9A6.235,6.235,0,0,1,62.5,68.74a6.1,6.1,0,0,1,.129-1.236h3.61a3.738,3.738,0,0,1,0,7.477v2.492a6.23,6.23,0,0,0,0-12.461h-2.47A6.229,6.229,0,0,1,69.36,62.55a6.58,6.58,0,0,1,5.6,6.736,13.594,13.594,0,0,1-2.971,8.468l-6.13,7.664L67.8,86.974l6.129-7.663A16.1,16.1,0,0,0,77.45,69.286C77.45,64.538,74,60.489,69.592,60.068Z" transform="translate(-55.016 -55.043)"/><path class="a" d="M439.833,144.731l-1.762,1.762a12.461,12.461,0,0,1,0,17.622l1.762,1.762a14.953,14.953,0,0,0,0-21.147Z" transform="translate(-401.675 -132.708)"/><path class="a" d="M397.37,187.2l-1.762,1.762a7.462,7.462,0,0,1,0,10.567l1.762,1.762a9.954,9.954,0,0,0,0-14.092Z" transform="translate(-362.739 -171.644)"/><path class="a" d="M353.2,231.36a2.487,2.487,0,0,1,0,3.522l1.762,1.762a4.979,4.979,0,0,0,0-7.047Z" transform="translate(-323.858 -210.525)"/></g></svg>