<svg xmlns="http://www.w3.org/2000/svg" width="51.453" height="51.454" viewBox="0 0 51.453 51.454">
  <g id="Grupo_1856" data-name="Grupo 1856" transform="translate(-930 -701)">
    <path id="Trazado_477" data-name="Trazado 477" d="M25.731,0A25.727,25.727,0,1,0,51.457,25.726,25.726,25.726,0,0,0,25.731,0Z" transform="translate(929.996 701)" fill="#283890"/>
    <g id="pause_1_" data-name="pause (1)" transform="translate(913.867 718)">
      <g id="Grupo_1853" data-name="Grupo 1853" transform="translate(34.133)">
        <g id="Grupo_1852" data-name="Grupo 1852" transform="translate(0)">
          <path id="Trazado_478" data-name="Trazado 478" d="M39.662,0H34.747a.614.614,0,0,0-.614.614V16.586a.614.614,0,0,0,.614.614h4.914a.614.614,0,0,0,.614-.614V.614A.614.614,0,0,0,39.662,0Z" transform="translate(-34.133)" fill="#fff"/>
        </g>
      </g>
      <g id="Grupo_1855" data-name="Grupo 1855" transform="translate(42.733)">
        <g id="Grupo_1854" data-name="Grupo 1854" transform="translate(0)">
          <path id="Trazado_479" data-name="Trazado 479" d="M278.595,0H273.68a.614.614,0,0,0-.614.614V16.586a.614.614,0,0,0,.614.614h4.914a.614.614,0,0,0,.614-.614V.614A.614.614,0,0,0,278.595,0Z" transform="translate(-273.066)" fill="#fff"/>
        </g>
      </g>
    </g>
  </g>
</svg>
