<svg xmlns="http://www.w3.org/2000/svg" width="36" height="36" viewBox="0 0 36 36"><defs><style>.a{fill:#c9ccdd;}</style></defs><path class="a" d="M176,99.5a1.5,1.5,0,0,0,3,0v-18a1.5,1.5,0,0,0-3,0Zm0,0" transform="translate(-159.5 -72.5)"/><path class="a" d="M1.5,96A1.5,1.5,0,0,0,0,97.5v15a1.5,1.5,0,0,0,3,0v-15A1.5,1.5,0,0,0,1.5,96Zm0,0" transform="translate(0 -87)"/><path class="a" d="M123,125.5v-12a1.5,1.5,0,0,0-3,0v12a1.5,1.5,0,0,0,3,0Zm0,0" transform="translate(-108.75 -101.5)"/><path class="a" d="M65.5,153a1.5,1.5,0,0,0,1.5-1.5v-6a1.5,1.5,0,0,0-3,0v6A1.5,1.5,0,0,0,65.5,153Zm0,0" transform="translate(-58 -130.5)"/><path class="a" d="M235,125.5v-12a1.5,1.5,0,0,0-3,0v12a1.5,1.5,0,0,0,3,0Zm0,0" transform="translate(-210.25 -101.5)"/><path class="a" d="M353.5,96a1.5,1.5,0,0,0-1.5,1.5v15a1.5,1.5,0,0,0,3,0v-15A1.5,1.5,0,0,0,353.5,96Zm0,0" transform="translate(-319 -87)"/><path class="a" d="M289.5,144a1.5,1.5,0,0,0-1.5,1.5v6a1.5,1.5,0,0,0,3,0v-6A1.5,1.5,0,0,0,289.5,144Zm0,0" transform="translate(-261 -130.5)"/><path class="a" d="M176,339a1.5,1.5,0,0,0,3,0v-1.5a1.5,1.5,0,0,0-3,0Zm0,0" transform="translate(-159.5 -304.5)"/><path class="a" d="M177.5,4.5A1.5,1.5,0,0,0,179,3V1.5a1.5,1.5,0,0,0-3,0V3A1.5,1.5,0,0,0,177.5,4.5Zm0,0" transform="translate(-159.5)"/></svg>