<svg xmlns="http://www.w3.org/2000/svg" width="16.597" height="17.191" viewBox="0 0 16.597 17.191"><defs><style>.a{fill:#fff;}</style></defs><g transform="translate(-6 -7)"><path class="a" d="M10.169,12.2H6.841A.841.841,0,0,0,6,13.039v5.115a.841.841,0,0,0,.841.841h3.328a.843.843,0,0,1,.427.116l5.332,4.964a.841.841,0,0,0,1.267-.725V7.843a.841.841,0,0,0-1.267-.725L10.6,12.082A.843.843,0,0,1,10.169,12.2Z" transform="translate(0 0)"/><path class="a" d="M40.941,26.412a.4.4,0,0,1-.283-.682,6.4,6.4,0,0,0,0-9.047.4.4,0,1,1,.565-.565,7.2,7.2,0,0,1,0,10.177A.4.4,0,0,1,40.941,26.412Z" transform="translate(-20.731 -5.401)"/><path class="a" d="M37.4,26.6a.4.4,0,0,1-.283-.682,4.411,4.411,0,0,0,0-6.231.4.4,0,1,1,.565-.565,5.211,5.211,0,0,1,0,7.362A.4.4,0,0,1,37.4,26.6Z" transform="translate(-18.606 -7.202)"/></g></svg>