<svg xmlns="http://www.w3.org/2000/svg" width="52.011" height="52.01" viewBox="0 0 52.011 52.01"><defs><style>.a{fill:#fff;}</style></defs><g transform="translate(0 -0.006)"><g transform="translate(0 0.006)"><path class="a" d="M48.964,27.8V22.964A1.524,1.524,0,0,0,47.44,21.44a45.967,45.967,0,0,0-8.855.808,13.758,13.758,0,0,0-5.721-3.312,10.666,10.666,0,1,0-13.717,0,13.76,13.76,0,0,0-5.721,3.312,45.975,45.975,0,0,0-8.855-.808,1.524,1.524,0,0,0-1.524,1.524V27.8A4.578,4.578,0,0,0,0,32.107v3.048a4.578,4.578,0,0,0,3.048,4.309V44.3a1.524,1.524,0,0,0,1.524,1.524A35.46,35.46,0,0,1,25.16,51.761a1.529,1.529,0,0,0,1.69,0A35.46,35.46,0,0,1,47.44,45.821,1.524,1.524,0,0,0,48.964,44.3V39.463a4.578,4.578,0,0,0,3.048-4.309V32.107A4.579,4.579,0,0,0,48.964,27.8ZM18.387,10.774a7.619,7.619,0,1,1,7.619,7.619A7.679,7.679,0,0,1,18.387,10.774ZM4.571,36.678a1.525,1.525,0,0,1-1.524-1.524V32.107a1.524,1.524,0,0,1,3.048,0v3.048A1.525,1.525,0,0,1,4.571,36.678ZM24.482,47.759A38.126,38.126,0,0,0,6.095,42.8V39.463a4.578,4.578,0,0,0,3.048-4.309V32.107A4.578,4.578,0,0,0,6.095,27.8V24.509a34.442,34.442,0,0,1,18.387,5.375Zm1.524-20.515A36.214,36.214,0,0,0,17.14,23.17a10.689,10.689,0,0,1,5.818-1.729h6.1a10.689,10.689,0,0,1,5.818,1.729A36.212,36.212,0,0,0,26.006,27.245ZM45.916,42.8A38.128,38.128,0,0,0,27.529,47.76V29.886a34.439,34.439,0,0,1,18.387-5.377V27.8a4.578,4.578,0,0,0-3.048,4.309v3.048a4.578,4.578,0,0,0,3.048,4.309Zm3.048-7.641a1.524,1.524,0,1,1-3.048,0V32.107a1.524,1.524,0,0,1,3.048,0Z" transform="translate(0 -0.006)"/></g></g></svg>