<svg xmlns="http://www.w3.org/2000/svg" width="38.01" height="38.01" viewBox="0 0 38.01 38.01"><defs><style>.a{fill:#fff;}</style></defs><path class="a" d="M320.005,301.748c-.107-.358-.549-.525-1-.525a.969.969,0,0,0-.99.525l-2.3,7.5a.69.69,0,0,0-.024.119c0,.382.561.644.978.644.262,0,.465-.083.525-.31l.453-1.587h2.732l.454,1.587c.059.227.262.31.525.31.418,0,.978-.274.978-.644a.525.525,0,0,0-.024-.119Zm-2.04,5.153L319,303.239l1.038,3.662Zm0,0" transform="translate(-292.252 -278.861)"/><path class="a" d="M33.915,15.506H22.5V10.632l3.708-2.649a1.113,1.113,0,0,0,0-1.812L22.459,3.491A4.1,4.1,0,0,0,18.408,0H4.1A4.1,4.1,0,0,0,0,4.1V18.409a4.1,4.1,0,0,0,4.1,4.1H15.506v4.874L11.8,30.026a1.113,1.113,0,0,0,0,1.812l3.753,2.681A4.1,4.1,0,0,0,19.6,38.01H33.915a4.1,4.1,0,0,0,4.1-4.1V19.6A4.1,4.1,0,0,0,33.915,15.506ZM4.1,20.277a1.87,1.87,0,0,1-1.868-1.868V4.1A1.87,1.87,0,0,1,4.1,2.227H18.408A1.87,1.87,0,0,1,20.276,4.1,1.113,1.113,0,0,0,20.743,5l2.906,2.076L20.743,9.153a1.114,1.114,0,0,0-.466.906v5.447H19.6a4.1,4.1,0,0,0-4.1,4.1v.676ZM35.783,33.914a1.87,1.87,0,0,1-1.868,1.868H19.6a1.87,1.87,0,0,1-1.868-1.868,1.113,1.113,0,0,0-.466-.906l-2.906-2.076,2.906-2.076a1.114,1.114,0,0,0,.466-.906V19.6A1.87,1.87,0,0,1,19.6,17.733H33.915A1.87,1.87,0,0,1,35.783,19.6Zm0,0"/><path class="a" d="M104.49,95.765a.628.628,0,0,0,0-1.256H101.7V92.984a.628.628,0,1,0-1.256,0v1.525H97.647a.628.628,0,0,0,0,1.256h.866a5.99,5.99,0,0,0,1.57,3.453,4.728,4.728,0,0,1-2.436.673.628.628,0,0,0,0,1.256,5.973,5.973,0,0,0,3.421-1.073,5.975,5.975,0,0,0,3.422,1.073.628.628,0,0,0,0-1.256,4.722,4.722,0,0,1-2.436-.673,5.99,5.99,0,0,0,1.57-3.453Zm-3.422,2.668a4.743,4.743,0,0,1-1.29-2.668h2.581A4.741,4.741,0,0,1,101.069,98.433Zm0,0" transform="translate(-89.817 -85.499)"/></svg>